<svg xmlns="http://www.w3.org/2000/svg" xmlns:xlink="http://www.w3.org/1999/xlink" width="265" zoomAndPan="magnify" viewBox="0 0 198.75 141.749996" height="189" preserveAspectRatio="xMidYMid meet" version="1.0"><defs><g/><clipPath id="ddb8666085"><path d="M 0.0507812 0 L 198.449219 0 L 198.449219 141.5 L 0.0507812 141.5 Z M 0.0507812 0 " clip-rule="nonzero"/></clipPath><clipPath id="75a3226ba9"><path d="M 30.46875 73.640625 L 50.183594 73.640625 L 50.183594 93.449219 L 30.46875 93.449219 Z M 30.46875 73.640625 " clip-rule="nonzero"/></clipPath><clipPath id="16b2290f3e"><path d="M 49.769531 83.484375 C 49.878906 77.074219 42.660156 72 36.761719 74.835938 C 34.539062 75.890625 32.707031 77.796875 31.585938 79.96875 C 30.144531 83.378906 31.078125 87.625 33.746094 90.175781 C 39.667969 95.96875 49.683594 91.730469 49.773438 83.488281 M 50.183594 83.488281 C 50.167969 92.296875 39.710938 96.632812 33.425781 90.492188 C 30.65625 87.789062 29.71875 83.382812 31.253906 79.816406 C 32.453125 77.570312 34.308594 75.636719 36.613281 74.523438 C 42.75 71.550781 50.269531 76.804688 50.175781 83.484375 " clip-rule="nonzero"/></clipPath><clipPath id="9399d607d6"><path d="M 31.941406 74.285156 L 48.710938 74.285156 L 48.710938 91.238281 L 31.941406 91.238281 Z M 31.941406 74.285156 " clip-rule="nonzero"/></clipPath><clipPath id="4051240656"><path d="M 48.640625 82.773438 C 48.640625 87.402344 44.914062 91.164062 40.3125 91.164062 L 40.3125 90.996094 L 40.3125 91.164062 C 40.296875 91.164062 40.273438 91.164062 40.25 91.164062 C 40.21875 91.164062 40.183594 91.164062 40.148438 91.164062 C 39.789062 91.164062 39.085938 91.144531 38.234375 90.902344 L 38.28125 90.742188 L 38.234375 90.902344 C 35.160156 90.023438 31.96875 86.871094 31.980469 82.773438 C 31.984375 82.164062 32.050781 81.714844 32.082031 81.539062 L 32.246094 81.570312 L 32.082031 81.539062 C 32.640625 78.402344 35.707031 74.382812 40.3125 74.375 C 44.753906 74.375 48.636719 78.125 48.640625 82.765625 C 48.640625 82.769531 48.640625 82.769531 48.640625 82.773438 L 48.472656 82.773438 L 48.640625 82.773438 M 48.308594 82.773438 C 48.308594 82.769531 48.308594 82.769531 48.308594 82.765625 C 48.304688 78.308594 44.570312 74.707031 40.3125 74.710938 L 40.3125 74.542969 L 40.3125 74.710938 C 35.914062 74.714844 32.945312 78.574219 32.410156 81.601562 C 32.378906 81.757812 32.316406 82.1875 32.3125 82.773438 L 32.144531 82.773438 L 32.3125 82.773438 C 32.300781 86.695312 35.367188 89.738281 38.328125 90.582031 C 39.136719 90.8125 39.804688 90.832031 40.148438 90.832031 C 40.183594 90.832031 40.21875 90.832031 40.25 90.832031 C 40.273438 90.832031 40.292969 90.832031 40.3125 90.832031 C 44.726562 90.832031 48.308594 87.222656 48.308594 82.773438 Z M 48.308594 82.773438 " clip-rule="nonzero"/></clipPath><clipPath id="0fb3347b6f"><path d="M 32.125 82.394531 L 39 82.394531 L 39 88.105469 L 32.125 88.105469 Z M 32.125 82.394531 " clip-rule="nonzero"/></clipPath><clipPath id="78c3863d73"><path d="M 32.144531 82.605469 C 32.289062 82.457031 32.433594 82.480469 32.574219 82.480469 L 33 82.492188 C 34.996094 82.542969 36.996094 82.597656 38.988281 82.730469 L 38.988281 82.808594 L 37.84375 82.839844 C 38.035156 82.683594 34.3125 88.050781 34.359375 88.019531 C 34.359375 88.019531 33.65625 87.476562 33.65625 87.476562 L 37.796875 82.75 L 37.816406 82.726562 L 37.84375 82.726562 L 38.988281 82.730469 L 38.988281 82.808594 C 36.996094 82.941406 34.996094 82.996094 33 83.046875 C 33 83.046875 32.574219 83.058594 32.574219 83.058594 C 32.433594 83.0625 32.289062 83.082031 32.144531 82.933594 Z M 32.144531 82.605469 " clip-rule="nonzero"/></clipPath><clipPath id="12ca64c556"><path d="M 37.839844 75.945312 L 45.671875 75.945312 L 45.671875 90.6875 L 37.839844 90.6875 Z M 37.839844 75.945312 " clip-rule="nonzero"/></clipPath><clipPath id="b05a8c833c"><path d="M 40.847656 75.992188 C 42.308594 76.980469 43.6875 78.144531 44.609375 79.695312 C 45.46875 81.269531 45.796875 83.160156 45.519531 84.929688 C 45.152344 86.679688 43.925781 88.492188 42.0625 88.828125 C 41.128906 88.988281 40.265625 88.722656 39.472656 88.933594 C 38.675781 89.097656 37.9375 89.691406 38.28125 90.566406 C 38.28125 90.566406 38.042969 90.664062 38.042969 90.664062 C 37.574219 89.621094 38.40625 88.8125 39.375 88.570312 C 40.285156 88.304688 41.195312 88.546875 41.980469 88.382812 C 43.609375 88.050781 44.660156 86.367188 44.980469 84.828125 C 45.230469 83.222656 44.882812 81.414062 44.105469 79.976562 C 43.246094 78.503906 41.976562 77.316406 40.695312 76.199219 C 40.695312 76.199219 40.847656 75.992188 40.847656 75.992188 " clip-rule="nonzero"/></clipPath><clipPath id="d2f3cca765"><path d="M 31.019531 79.355469 L 32.496094 79.355469 L 32.496094 80.644531 L 31.019531 80.644531 Z M 31.019531 79.355469 " clip-rule="nonzero"/></clipPath><clipPath id="403f9c0b83"><path d="M 32.460938 79.714844 C 32.324219 79.730469 31.988281 79.792969 31.6875 80.074219 C 31.484375 80.257812 31.382812 80.460938 31.335938 80.585938 L 31.023438 80.460938 C 31.085938 80.3125 31.210938 80.058594 31.460938 79.832031 L 31.574219 79.953125 L 31.460938 79.832031 C 31.835938 79.488281 32.257812 79.40625 32.417969 79.386719 Z M 32.460938 79.714844 " clip-rule="nonzero"/></clipPath><clipPath id="4e2e3017ab"><path d="M 32.035156 80.550781 L 32.957031 80.550781 L 32.957031 83.960938 L 32.035156 83.960938 Z M 32.035156 80.550781 " clip-rule="nonzero"/></clipPath><clipPath id="4ab592558a"><path d="M 32.921875 80.964844 C 32.328125 80.886719 32.347656 81.734375 32.296875 82.160156 C 32.261719 82.730469 32.214844 83.3125 32.371094 83.871094 C 32.371094 83.871094 32.039062 83.875 32.039062 83.875 C 32.179688 83.378906 32.148438 82.660156 32.167969 82.148438 C 32.179688 81.578125 32.144531 80.660156 32.941406 80.628906 C 32.941406 80.628906 32.921875 80.960938 32.921875 80.960938 " clip-rule="nonzero"/></clipPath><clipPath id="1e475d56f0"><path d="M 38.300781 71.707031 L 42.722656 71.707031 L 42.722656 76.035156 L 38.300781 76.035156 Z M 38.300781 71.707031 " clip-rule="nonzero"/></clipPath><clipPath id="1e2737bc0b"><path d="M 42.675781 73.871094 C 42.675781 75.066406 41.695312 76.035156 40.488281 76.035156 C 39.28125 76.035156 38.300781 75.066406 38.300781 73.871094 C 38.300781 72.675781 39.28125 71.707031 40.488281 71.707031 C 41.695312 71.707031 42.675781 72.675781 42.675781 73.871094 " clip-rule="nonzero"/></clipPath><clipPath id="c14bd1fda7"><path d="M 32.496094 77.695312 L 36.179688 77.695312 L 36.179688 81.472656 L 32.496094 81.472656 Z M 32.496094 77.695312 " clip-rule="nonzero"/></clipPath><clipPath id="8c44f76309"><path d="M 32.527344 79.585938 C 32.527344 78.566406 33.34375 77.742188 34.347656 77.742188 C 35.355469 77.742188 36.164062 78.570312 36.164062 79.585938 C 36.164062 80.605469 35.351562 81.433594 34.347656 81.433594 C 33.347656 81.433594 32.527344 80.605469 32.527344 79.585938 " clip-rule="nonzero"/></clipPath><clipPath id="9f55fb6f86"><path d="M 29.914062 73.179688 L 38.390625 73.179688 L 38.390625 81.75 L 29.914062 81.75 Z M 29.914062 73.179688 " clip-rule="nonzero"/></clipPath><clipPath id="8ab76f9056"><path d="M 37.585938 73.207031 C 36.816406 73.207031 34.734375 74.292969 32.929688 76.246094 C 31 78.339844 29.925781 80.675781 29.921875 81.40625 L 29.921875 81.421875 C 29.921875 81.515625 29.941406 81.582031 29.984375 81.617188 C 30.019531 81.648438 30.144531 81.699219 30.273438 81.703125 L 30.292969 81.703125 C 30.347656 81.703125 30.40625 81.691406 30.460938 81.664062 C 30.535156 81.625 30.578125 81.5625 30.613281 81.511719 C 30.707031 81.371094 30.691406 81.285156 30.757812 81.019531 C 30.78125 80.917969 30.78125 80.886719 30.796875 80.859375 C 30.820312 80.796875 30.84375 80.785156 30.878906 80.722656 C 30.925781 80.644531 30.914062 80.636719 30.972656 80.515625 C 30.980469 80.492188 31.023438 80.402344 31.085938 80.300781 C 31.113281 80.257812 31.152344 80.1875 31.214844 80.105469 C 31.265625 80.039062 31.339844 79.9375 31.46875 79.839844 C 31.585938 79.75 31.703125 79.691406 31.832031 79.628906 C 31.855469 79.617188 31.847656 79.621094 31.878906 79.605469 C 31.878906 79.605469 32.105469 79.496094 32.304688 79.34375 C 32.320312 79.335938 32.34375 79.316406 32.355469 79.289062 C 32.390625 79.222656 32.367188 79.15625 32.367188 79.140625 C 32.363281 78.78125 32.589844 78.484375 32.78125 78.222656 C 32.878906 78.097656 33.214844 77.652344 33.765625 77.523438 C 33.867188 77.5 34.070312 77.492188 34.476562 77.472656 C 34.542969 77.472656 34.601562 77.46875 34.65625 77.46875 C 34.75 77.46875 34.828125 77.472656 34.914062 77.496094 C 35.15625 77.539062 35.3125 77.644531 35.355469 77.667969 C 35.402344 77.695312 35.460938 77.707031 35.527344 77.707031 C 36.320312 77.707031 38.320312 75.992188 38.328125 75.289062 L 38.328125 75.28125 C 38.328125 75.242188 38.320312 75.203125 38.304688 75.167969 C 38.285156 75.121094 38.203125 74.945312 38.082031 74.671875 C 38.042969 74.582031 38.003906 74.472656 37.964844 74.328125 C 37.804688 73.695312 37.96875 73.429688 37.851562 73.292969 C 37.804688 73.234375 37.714844 73.207031 37.589844 73.207031 Z M 37.585938 73.207031 " clip-rule="nonzero"/></clipPath><clipPath id="089f97437c"><path d="M 37.839844 71.429688 L 42.90625 71.429688 L 42.90625 76.40625 L 37.839844 76.40625 Z M 37.839844 71.429688 " clip-rule="nonzero"/></clipPath><clipPath id="da0498a08e"><path d="M 42.660156 73.882812 C 42.734375 71.960938 40.253906 71.027344 38.996094 72.429688 C 37.757812 73.746094 38.566406 76.03125 40.457031 76.035156 C 41.625 76.078125 42.667969 75.050781 42.660156 73.882812 M 42.859375 73.882812 C 42.90625 75.183594 41.75 76.320312 40.457031 76.3125 C 38.332031 76.367188 36.984375 73.628906 38.667969 72.097656 C 40.210938 70.625 42.84375 71.785156 42.863281 73.882812 " clip-rule="nonzero"/></clipPath><clipPath id="33e5dfcc10"><path d="M 32.125 77.328125 L 36.457031 77.328125 L 36.457031 81.566406 L 32.125 81.566406 Z M 32.125 77.328125 " clip-rule="nonzero"/></clipPath><clipPath id="3e18e2f2b7"><path d="M 35.941406 79.496094 C 35.847656 77.242188 32.589844 77.203125 32.523438 79.496094 C 32.601562 81.875 35.90625 81.851562 35.941406 79.496094 M 36.398438 79.496094 C 36.363281 81.328125 34.113281 82.167969 32.820312 80.941406 C 31.976562 80.210938 32.007812 78.789062 32.800781 78.035156 C 34.097656 76.710938 36.429688 77.617188 36.398438 79.496094 " clip-rule="nonzero"/></clipPath><clipPath id="f703a3ab50"><path d="M 32.035156 80.273438 L 32.585938 80.273438 L 32.585938 81.566406 L 32.035156 81.566406 Z M 32.035156 80.273438 " clip-rule="nonzero"/></clipPath><clipPath id="f7953504bb"><path d="M 32.328125 80.285156 C 32.347656 80.324219 32.347656 80.296875 32.492188 80.53125 C 32.527344 80.589844 32.546875 80.605469 32.546875 80.640625 C 32.546875 80.695312 32.507812 80.695312 32.425781 80.773438 C 32.359375 80.832031 32.324219 80.886719 32.269531 80.976562 C 32.171875 81.132812 32.132812 81.269531 32.125 81.300781 C 32.097656 81.398438 32.082031 81.480469 32.078125 81.539062 " clip-rule="nonzero"/></clipPath><clipPath id="79d1b9ebfe"><path d="M 30.929688 79 L 32.402344 79 L 32.402344 80.550781 L 30.929688 80.550781 Z M 30.929688 79 " clip-rule="nonzero"/></clipPath><clipPath id="45a4117a72"><path d="M 32.3125 79.21875 C 32.347656 79.132812 32.359375 79.078125 32.335938 79.058594 C 32.257812 78.988281 31.859375 79.25 31.597656 79.515625 C 31.558594 79.5625 31.394531 79.722656 31.246094 79.964844 C 31.191406 80.050781 31.152344 80.121094 31.136719 80.15625 C 31.066406 80.285156 31.023438 80.402344 30.992188 80.496094 " clip-rule="nonzero"/></clipPath><clipPath id="6383acee53"><path d="M 31.851562 79.167969 L 32.402344 79.167969 L 32.402344 79.722656 L 31.851562 79.722656 Z M 31.851562 79.167969 " clip-rule="nonzero"/></clipPath><clipPath id="7a96bf0058"><path d="M 31.921875 79.636719 L 32.316406 79.441406 L 32.253906 79.191406 L 31.882812 79.582031 " clip-rule="nonzero"/></clipPath><clipPath id="7cc90418d5"><path d="M 32.035156 80.367188 L 32.679688 80.367188 L 32.679688 81.75 L 32.035156 81.75 Z M 32.035156 80.367188 " clip-rule="nonzero"/></clipPath><clipPath id="144c6444e8"><path d="M 32.507812 80.414062 C 32.449219 80.527344 32.28125 80.628906 32.226562 80.785156 C 32.179688 80.929688 32.164062 81.007812 32.121094 81.210938 C 32.078125 81.417969 32.050781 81.683594 32.054688 81.6875 C 32.089844 81.703125 32.257812 81.3125 32.632812 80.785156 " clip-rule="nonzero"/></clipPath></defs><g clip-path="url(#ddb8666085)"><path fill="#ffffff" d="M 0.0507812 0 L 198.449219 0 L 198.449219 141.5 L 0.0507812 141.5 Z M 0.0507812 0 " fill-opacity="1" fill-rule="nonzero"/></g><g clip-path="url(#75a3226ba9)"><g clip-path="url(#16b2290f3e)"><path fill="#008956" d="M 28.257812 69.769531 L 51.84375 69.769531 L 51.84375 95.015625 L 28.257812 95.015625 Z M 28.257812 69.769531 " fill-opacity="1" fill-rule="nonzero"/></g></g><g clip-path="url(#9399d607d6)"><g clip-path="url(#4051240656)"><path fill="#008956" d="M 28.257812 69.769531 L 51.84375 69.769531 L 51.84375 95.015625 L 28.257812 95.015625 Z M 28.257812 69.769531 " fill-opacity="1" fill-rule="nonzero"/></g></g><g clip-path="url(#0fb3347b6f)"><g clip-path="url(#78c3863d73)"><path fill="#008956" d="M 28.257812 69.769531 L 51.84375 69.769531 L 51.84375 95.015625 L 28.257812 95.015625 Z M 28.257812 69.769531 " fill-opacity="1" fill-rule="nonzero"/></g></g><g clip-path="url(#12ca64c556)"><g clip-path="url(#b05a8c833c)"><path fill="#008956" d="M 28.257812 69.769531 L 51.84375 69.769531 L 51.84375 95.015625 L 28.257812 95.015625 Z M 28.257812 69.769531 " fill-opacity="1" fill-rule="nonzero"/></g></g><g clip-path="url(#d2f3cca765)"><g clip-path="url(#403f9c0b83)"><path fill="#008956" d="M 28.257812 69.769531 L 51.84375 69.769531 L 51.84375 95.015625 L 28.257812 95.015625 Z M 28.257812 69.769531 " fill-opacity="1" fill-rule="nonzero"/></g></g><g clip-path="url(#4e2e3017ab)"><g clip-path="url(#4ab592558a)"><path fill="#008956" d="M 28.257812 69.769531 L 51.84375 69.769531 L 51.84375 95.015625 L 28.257812 95.015625 Z M 28.257812 69.769531 " fill-opacity="1" fill-rule="nonzero"/></g></g><g clip-path="url(#1e475d56f0)"><g clip-path="url(#1e2737bc0b)"><path fill="#ffffff" d="M 28.257812 69.769531 L 51.84375 69.769531 L 51.84375 95.015625 L 28.257812 95.015625 Z M 28.257812 69.769531 " fill-opacity="1" fill-rule="nonzero"/></g></g><g clip-path="url(#c14bd1fda7)"><g clip-path="url(#8c44f76309)"><path fill="#ffffff" d="M 28.257812 69.769531 L 51.84375 69.769531 L 51.84375 95.015625 L 28.257812 95.015625 Z M 28.257812 69.769531 " fill-opacity="1" fill-rule="nonzero"/></g></g><g clip-path="url(#9f55fb6f86)"><g clip-path="url(#8ab76f9056)"><path fill="#ffffff" d="M 28.257812 69.769531 L 51.84375 69.769531 L 51.84375 95.015625 L 28.257812 95.015625 Z M 28.257812 69.769531 " fill-opacity="1" fill-rule="nonzero"/></g></g><g clip-path="url(#089f97437c)"><g clip-path="url(#da0498a08e)"><path fill="#008956" d="M 28.257812 69.769531 L 51.84375 69.769531 L 51.84375 95.015625 L 28.257812 95.015625 Z M 28.257812 69.769531 " fill-opacity="1" fill-rule="nonzero"/></g></g><g clip-path="url(#33e5dfcc10)"><g clip-path="url(#3e18e2f2b7)"><path fill="#008956" d="M 28.257812 69.769531 L 51.84375 69.769531 L 51.84375 95.015625 L 28.257812 95.015625 Z M 28.257812 69.769531 " fill-opacity="1" fill-rule="nonzero"/></g></g><g clip-path="url(#f703a3ab50)"><g clip-path="url(#f7953504bb)"><path fill="#ffffff" d="M 28.257812 69.769531 L 51.84375 69.769531 L 51.84375 95.015625 L 28.257812 95.015625 Z M 28.257812 69.769531 " fill-opacity="1" fill-rule="nonzero"/></g></g><g clip-path="url(#79d1b9ebfe)"><g clip-path="url(#45a4117a72)"><path fill="#008956" d="M 28.257812 69.769531 L 51.84375 69.769531 L 51.84375 95.015625 L 28.257812 95.015625 Z M 28.257812 69.769531 " fill-opacity="1" fill-rule="nonzero"/></g></g><g clip-path="url(#6383acee53)"><g clip-path="url(#7a96bf0058)"><path fill="#008956" d="M 28.257812 69.769531 L 51.84375 69.769531 L 51.84375 95.015625 L 28.257812 95.015625 Z M 28.257812 69.769531 " fill-opacity="1" fill-rule="nonzero"/></g></g><g clip-path="url(#7cc90418d5)"><g clip-path="url(#144c6444e8)"><path fill="#008956" d="M 28.257812 69.769531 L 51.84375 69.769531 L 51.84375 95.015625 L 28.257812 95.015625 Z M 28.257812 69.769531 " fill-opacity="1" fill-rule="nonzero"/></g></g><g fill="#008956" fill-opacity="1"><g transform="translate(53.528357, 92.540899)"><g><path d="M 4.96875 -10.71875 C 6.09375 -10.71875 7.078125 -10.492188 7.921875 -10.046875 C 8.765625 -9.597656 9.414062 -8.96875 9.875 -8.15625 C 10.34375 -7.351562 10.578125 -6.421875 10.578125 -5.359375 C 10.578125 -4.304688 10.34375 -3.375 9.875 -2.5625 C 9.414062 -1.75 8.757812 -1.117188 7.90625 -0.671875 C 7.0625 -0.222656 6.082031 0 4.96875 0 L 0.953125 0 L 0.953125 -10.71875 Z M 4.796875 -2.265625 C 5.785156 -2.265625 6.550781 -2.53125 7.09375 -3.0625 C 7.644531 -3.601562 7.921875 -4.367188 7.921875 -5.359375 C 7.921875 -6.347656 7.644531 -7.113281 7.09375 -7.65625 C 6.550781 -8.207031 5.785156 -8.484375 4.796875 -8.484375 L 3.5625 -8.484375 L 3.5625 -2.265625 Z M 4.796875 -2.265625 "/></g></g></g><g fill="#008956" fill-opacity="1"><g transform="translate(64.629609, 92.540899)"><g><path d="M 2.265625 -9.40625 C 1.804688 -9.40625 1.429688 -9.539062 1.140625 -9.8125 C 0.847656 -10.082031 0.703125 -10.414062 0.703125 -10.8125 C 0.703125 -11.21875 0.847656 -11.554688 1.140625 -11.828125 C 1.429688 -12.097656 1.804688 -12.234375 2.265625 -12.234375 C 2.710938 -12.234375 3.078125 -12.097656 3.359375 -11.828125 C 3.648438 -11.554688 3.796875 -11.21875 3.796875 -10.8125 C 3.796875 -10.414062 3.648438 -10.082031 3.359375 -9.8125 C 3.078125 -9.539062 2.710938 -9.40625 2.265625 -9.40625 Z M 3.5625 -8.515625 L 3.5625 0 L 0.953125 0 L 0.953125 -8.515625 Z M 3.5625 -8.515625 "/></g></g></g><g fill="#008956" fill-opacity="1"><g transform="translate(69.134241, 92.540899)"><g><path d="M 0.421875 -4.28125 C 0.421875 -5.15625 0.585938 -5.921875 0.921875 -6.578125 C 1.253906 -7.242188 1.703125 -7.753906 2.265625 -8.109375 C 2.835938 -8.460938 3.476562 -8.640625 4.1875 -8.640625 C 4.78125 -8.640625 5.300781 -8.515625 5.75 -8.265625 C 6.207031 -8.023438 6.5625 -7.707031 6.8125 -7.3125 L 6.8125 -8.515625 L 9.421875 -8.515625 L 9.421875 0 L 6.8125 0 L 6.8125 -1.203125 C 6.550781 -0.804688 6.191406 -0.484375 5.734375 -0.234375 C 5.285156 0.00390625 4.765625 0.125 4.171875 0.125 C 3.472656 0.125 2.835938 -0.0546875 2.265625 -0.421875 C 1.703125 -0.785156 1.253906 -1.300781 0.921875 -1.96875 C 0.585938 -2.632812 0.421875 -3.40625 0.421875 -4.28125 Z M 6.8125 -4.265625 C 6.8125 -4.910156 6.628906 -5.421875 6.265625 -5.796875 C 5.898438 -6.171875 5.460938 -6.359375 4.953125 -6.359375 C 4.429688 -6.359375 3.988281 -6.171875 3.625 -5.796875 C 3.257812 -5.429688 3.078125 -4.925781 3.078125 -4.28125 C 3.078125 -3.625 3.257812 -3.101562 3.625 -2.71875 C 3.988281 -2.34375 4.429688 -2.15625 4.953125 -2.15625 C 5.460938 -2.15625 5.898438 -2.34375 6.265625 -2.71875 C 6.628906 -3.09375 6.8125 -3.609375 6.8125 -4.265625 Z M 7 -10.640625 L 3.328125 -9.09375 L 3.328125 -10.90625 L 7 -12.671875 Z M 7 -10.640625 "/></g></g></g><g fill="#008956" fill-opacity="1"><g transform="translate(79.502533, 92.540899)"><g><path d="M 6.15625 0 L 3.5625 -3.578125 L 3.5625 0 L 0.953125 0 L 0.953125 -11.296875 L 3.5625 -11.296875 L 3.5625 -5.046875 L 6.140625 -8.515625 L 9.359375 -8.515625 L 5.8125 -4.25 L 9.390625 0 Z M 6.15625 0 "/></g></g></g><g fill="#008956" fill-opacity="1"><g transform="translate(88.939358, 92.540899)"><g/></g></g><g fill="#008956" fill-opacity="1"><g transform="translate(92.176587, 92.540899)"><g><path d="M 10.234375 -10.71875 L 10.234375 0 L 7.625 0 L 7.625 -4.40625 L 3.5625 -4.40625 L 3.5625 0 L 0.953125 0 L 0.953125 -10.71875 L 3.5625 -10.71875 L 3.5625 -6.515625 L 7.625 -6.515625 L 7.625 -10.71875 Z M 10.234375 -10.71875 "/></g></g></g><g fill="#008956" fill-opacity="1"><g transform="translate(103.338919, 92.540899)"><g><path d="M 4.828125 0.125 C 3.992188 0.125 3.242188 -0.0507812 2.578125 -0.40625 C 1.910156 -0.769531 1.382812 -1.28125 1 -1.9375 C 0.613281 -2.601562 0.421875 -3.378906 0.421875 -4.265625 C 0.421875 -5.140625 0.613281 -5.910156 1 -6.578125 C 1.394531 -7.242188 1.925781 -7.753906 2.59375 -8.109375 C 3.269531 -8.460938 4.023438 -8.640625 4.859375 -8.640625 C 5.691406 -8.640625 6.441406 -8.460938 7.109375 -8.109375 C 7.785156 -7.753906 8.316406 -7.242188 8.703125 -6.578125 C 9.085938 -5.910156 9.28125 -5.140625 9.28125 -4.265625 C 9.28125 -3.390625 9.082031 -2.617188 8.6875 -1.953125 C 8.300781 -1.285156 7.769531 -0.769531 7.09375 -0.40625 C 6.414062 -0.0507812 5.660156 0.125 4.828125 0.125 Z M 4.828125 -2.140625 C 5.328125 -2.140625 5.75 -2.320312 6.09375 -2.6875 C 6.445312 -3.050781 6.625 -3.578125 6.625 -4.265625 C 6.625 -4.941406 6.453125 -5.460938 6.109375 -5.828125 C 5.773438 -6.191406 5.359375 -6.375 4.859375 -6.375 C 4.347656 -6.375 3.921875 -6.191406 3.578125 -5.828125 C 3.242188 -5.472656 3.078125 -4.953125 3.078125 -4.265625 C 3.078125 -3.578125 3.242188 -3.050781 3.578125 -2.6875 C 3.910156 -2.320312 4.328125 -2.140625 4.828125 -2.140625 Z M 4.828125 -2.140625 "/></g></g></g><g fill="#008956" fill-opacity="1"><g transform="translate(113.065874, 92.540899)"><g><path d="M 3.5625 -11.296875 L 3.5625 0 L 0.953125 0 L 0.953125 -11.296875 Z M 3.5625 -11.296875 "/></g></g></g><g fill="#008956" fill-opacity="1"><g transform="translate(117.570506, 92.540899)"><g><path d="M 13.078125 -10.71875 L 13.078125 0 L 10.46875 0 L 10.46875 -6.421875 L 8.078125 0 L 5.96875 0 L 3.5625 -6.4375 L 3.5625 0 L 0.953125 0 L 0.953125 -10.71875 L 4.03125 -10.71875 L 7.03125 -3.296875 L 10.015625 -10.71875 Z M 13.078125 -10.71875 "/></g></g></g><g fill="#008956" fill-opacity="1"><g transform="translate(131.588317, 92.540899)"><g><path d="M 2.265625 -9.40625 C 1.804688 -9.40625 1.429688 -9.539062 1.140625 -9.8125 C 0.847656 -10.082031 0.703125 -10.414062 0.703125 -10.8125 C 0.703125 -11.21875 0.847656 -11.554688 1.140625 -11.828125 C 1.429688 -12.097656 1.804688 -12.234375 2.265625 -12.234375 C 2.710938 -12.234375 3.078125 -12.097656 3.359375 -11.828125 C 3.648438 -11.554688 3.796875 -11.21875 3.796875 -10.8125 C 3.796875 -10.414062 3.648438 -10.082031 3.359375 -9.8125 C 3.078125 -9.539062 2.710938 -9.40625 2.265625 -9.40625 Z M 3.5625 -8.515625 L 3.5625 0 L 0.953125 0 L 0.953125 -8.515625 Z M 3.5625 -8.515625 "/></g></g></g></svg>